<svg xmlns="http://www.w3.org/2000/svg" width="110" height="111.343" viewBox="0 0 110 111.343">
  <g id="Group_2483" data-name="Group 2483" transform="translate(-1301 -329)">
    <g id="Group_2481" data-name="Group 2481">
      <g id="Rectangle_2292" data-name="Rectangle 2292" transform="translate(1301 329)" fill="none" stroke="#707070" stroke-width="1">
        <!-- <rect width="110" height="111" rx="11" stroke="none"/>
        <rect x="0.5" y="0.5" width="109" height="110" rx="10.5" fill="none"/> -->
      </g>
      <g id="user" transform="translate(1310.657 349.235)" opacity="0.13">
        <g id="Group_2476" data-name="Group 2476" transform="translate(0)">
          <path id="Path_2538" data-name="Path 2538" d="M77.766,58.9A45.379,45.379,0,0,0,60.455,48.038a26.336,26.336,0,1,0-29.8,0A45.626,45.626,0,0,0,0,91.108H7.118a38.436,38.436,0,1,1,76.872,0h7.118A45.257,45.257,0,0,0,77.766,58.9ZM45.554,45.554A19.218,19.218,0,1,1,64.772,26.336,19.24,19.24,0,0,1,45.554,45.554Z" transform="translate(0)"/>
        </g>
      </g>
    </g>
  </g>
</svg>
