<svg xmlns="http://www.w3.org/2000/svg" width="22.731" height="22.731" viewBox="0 0 22.731 22.731"><defs><style>.a{opacity:0.5;}</style></defs><g class="a" transform="translate(-1.999 -2)"><path d="M34.855,28.711l.065-.065a.379.379,0,1,0-.536-.536l-.065.065a1.137,1.137,0,0,1-1.608,0l-.065-.065a.379.379,0,1,0-.536.536l.065.065A1.894,1.894,0,0,0,34.855,28.711Z" transform="translate(-18.635 -16.15)"/><path d="M9.576,24H2.757a.379.379,0,0,0-.375.326L2,26.978a.381.381,0,0,0,.087.3.393.393,0,0,0,.288.129H3l-.621,3.728a.4.4,0,0,0,.072.288l1.137,1.515a.384.384,0,0,0,.3.152H5.409a.379.379,0,0,0,.379-.379V31.228l.383-2.3H7.3a.379.379,0,0,0,.379-.379V27.031H9.576a.379.379,0,0,0,.379-.379V24.379A.379.379,0,0,0,9.576,24ZM2.814,26.652l.273-1.894h.36l-.314,1.894Zm4.11,1.515H6.3l.189-1.137h.436Zm.758-1.894H6.167a.379.379,0,0,0-.375.318l-.758,4.546a.306.306,0,0,0,0,.061v1.137H4.083L3.159,31.1l1.057-6.342H7.682Zm1.515,0H8.44V24.758H9.2Z" transform="translate(0 -13.665)"/><path d="M37.154,5.432a3.41,3.41,0,0,0-6.8-.379H23.137a.379.379,0,0,0-.379.379V6.19a3.415,3.415,0,0,0,2.129,3.16,1.879,1.879,0,0,0-.614,1.387v1.424l-1.2,2.364h-.7a.387.387,0,0,0-.284.125.367.367,0,0,0-.091.3l.758,6.819a.375.375,0,0,0,.375.337H25.41a4.176,4.176,0,0,0,.758-.072v2.345a.379.379,0,0,0,.379.379h6.819a.379.379,0,0,0,.379-.379V21.548l1.216-.815a4.9,4.9,0,0,0,2.194-4.1v-5.9a5.617,5.617,0,0,0-.879-3.027,3.39,3.39,0,0,0,.879-2.277ZM33.745,2.78a2.652,2.652,0,1,1-2.652,2.652A2.652,2.652,0,0,1,33.745,2.78ZM24.99,12.422a.379.379,0,0,0,.042-.17V10.736A1.14,1.14,0,0,1,26.168,9.6h4.167a1.894,1.894,0,0,1,1.894,1.894v1.959l-5.751,1.08v.008c-.1-.008-.2-.015-.311-.015H23.925Zm.421,8.922H23.478L22.8,15.282h3.364a2.655,2.655,0,0,1,2.652,2.652A3.415,3.415,0,0,1,25.41,21.344ZM32.987,24H26.926V21.813a4.386,4.386,0,0,0,.951-.527v0l5.111-3.065Zm.379-6.819a.659.659,0,0,0-.193.053l-3.944,2.364a4.106,4.106,0,0,0,.349-1.659,3.4,3.4,0,0,0-1.636-2.905l4.7-.883H34.5a.379.379,0,0,1,.379.379V16.04a1.14,1.14,0,0,1-1.137,1.137Zm3.031-6.44v5.9A4.157,4.157,0,0,1,34.544,20.1l-.8.53v-2.7a1.894,1.894,0,0,0,1.894-1.894V14.525A1.14,1.14,0,0,0,34.5,13.388H32.987V11.494a2.655,2.655,0,0,0-2.652-2.652H26.168A2.655,2.655,0,0,1,23.516,6.19V5.811h6.842a3.416,3.416,0,0,0,3.387,3.031A3.369,3.369,0,0,0,35.7,8.217a4.9,4.9,0,0,1,.693,2.519Z" transform="translate(-12.424 -0.023)"/><path d="M9.432,9.522a1.97,1.97,0,0,0,.46.055,1.894,1.894,0,0,0,1.137-3.41V3.137a1.137,1.137,0,0,0-2.273,0V6.167a1.9,1.9,0,0,0-.7,1.986A1.874,1.874,0,0,0,9.432,9.522ZM9.323,6.7a.379.379,0,0,0,.189-.328V3.137a.379.379,0,0,1,.758,0H9.892v.758h.379v.379H9.892v.758h.379V5.41H9.892v.758h.379v.2a.379.379,0,0,0,.189.328,1.137,1.137,0,1,1-1.137,0Z" transform="translate(-3.725)"/><ellipse cx="1" cy="0.5" rx="1" ry="0.5" transform="translate(5.364 7.365)"/><path d="M49.233,10.254a.379.379,0,0,0,.536,0l2.143-2.143a.379.379,0,1,0-.536-.536L49.5,9.45l-.8-.8a.379.379,0,1,0-.536.536Z" transform="translate(-28.605 -3.394)"/></g></svg>