<svg xmlns="http://www.w3.org/2000/svg" width="19.215" height="23.526" viewBox="0 0 19.215 23.526"><defs><style>.a{opacity:0.43;}</style></defs><g class="a"><path d="M19.155,5.258,18.635,3.7A1.449,1.449,0,0,0,17.26,2.71H12.894V1.288A1.29,1.29,0,0,0,11.606,0h-4A1.29,1.29,0,0,0,6.32,1.288V2.71H1.955A1.449,1.449,0,0,0,.579,3.7L.059,5.258A1.166,1.166,0,0,0,1.165,6.793h.543L2.9,21.57a2.138,2.138,0,0,0,2.119,1.956h9.413a2.138,2.138,0,0,0,2.119-1.956l1.2-14.778h.3a1.166,1.166,0,0,0,1.106-1.534ZM7.7,1.378h3.817V2.71H7.7ZM15.18,21.459a.752.752,0,0,1-.745.688H5.022a.752.752,0,0,1-.745-.688L3.091,6.793H16.366ZM1.461,5.414l.426-1.277a.072.072,0,0,1,.068-.049H17.26a.072.072,0,0,1,.068.049l.426,1.277Zm0,0" transform="translate(0 0)"/><path d="M268.95,179.379h.036a.689.689,0,0,0,.688-.653l.647-12.425a.689.689,0,1,0-1.377-.072l-.647,12.425A.689.689,0,0,0,268.95,179.379Zm0,0" transform="translate(-255.968 -157.968)"/><path d="M106.472,178.731a.689.689,0,0,0,.688.652h.038a.689.689,0,0,0,.651-.726l-.678-12.425a.689.689,0,1,0-1.376.075Zm0,0" transform="translate(-100.932 -157.971)"/><path d="M194.943,179.382a.689.689,0,0,0,.689-.689V166.268a.689.689,0,0,0-1.378,0v12.425A.689.689,0,0,0,194.943,179.382Zm0,0" transform="translate(-185.328 -157.971)"/></g></svg>