<svg xmlns="http://www.w3.org/2000/svg" width="32.928" height="32.544" viewBox="0 0 32.928 32.544"><defs><style>.a,.b{fill:#fff;stroke:#fff;}.b{stroke-width:0.2px;}</style></defs><g transform="translate(0.5 -0.161)"><path class="a" d="M29.632,56.107a.8.8,0,0,0-.8.8v7.1a2.4,2.4,0,0,1-2.4,2.4H4a2.4,2.4,0,0,1-2.4-2.4V43.17a2.4,2.4,0,0,1,2.4-2.4h7.1a.8.8,0,1,0,0-1.6H4a4,4,0,0,0-4,4V64.007a4,4,0,0,0,4,4H26.433a4,4,0,0,0,4-4v-7.1a.8.8,0,0,0-.8-.8Zm0,0" transform="translate(0 -35.8)"/><path class="b" d="M129.654,1.315a3.6,3.6,0,0,0-5.089,0L110.3,15.58a.8.8,0,0,0-.205.352L108.219,22.7a.8.8,0,0,0,.984.984l6.772-1.876a.8.8,0,0,0,.352-.205L130.592,7.341a3.6,3.6,0,0,0,0-5.089ZM112.043,16.1,123.717,4.424l3.765,3.765L115.808,19.865Zm-.752,1.509,3.008,3.008-4.161,1.153Zm18.171-11.4-.848.848-3.766-3.766.848-.848a2,2,0,0,1,2.827,0l.939.938A2,2,0,0,1,129.462,6.211Zm0,0" transform="translate(-99.54)"/></g></svg>