<svg xmlns="http://www.w3.org/2000/svg" width="30.415" height="23.024" viewBox="0 0 30.415 23.024"><g transform="translate(-5 -66)"><g transform="translate(5 66)"><path d="M32.992,66H7.424A2.242,2.242,0,0,0,5,68.424V86.6a2.241,2.241,0,0,0,2.424,2.424H32.992A2.241,2.241,0,0,0,35.415,86.6V68.424A2.241,2.241,0,0,0,32.992,66Zm-.376,1.515-12.35,12.35L7.809,67.515ZM6.515,86.224V68.791l8.754,8.679ZM7.8,87.509l8.759-8.759,3.069,3.043a.909.909,0,0,0,1.282,0L23.9,78.8l8.712,8.712Zm26.1-1.285-8.712-8.712L33.9,68.8Z" transform="translate(-5 -66)"/></g></g></svg>