<svg xmlns="http://www.w3.org/2000/svg" width="20.669" height="20.669" viewBox="0 0 20.669 20.669"><defs><style>.a{opacity:0.65;}.b{fill:#bebebe;}</style></defs><g class="a"><path class="b" d="M2.757,1.615h3.9V0H0V6.661H1.615v-3.9L7.145,8.287,8.287,7.145Z"/><g transform="translate(0 12.382)"><path class="b" d="M8.287,307.858l-1.142-1.142-5.531,5.531v-3.9H0V315H6.661v-1.615h-3.9Z" transform="translate(0 -306.716)"/></g><g transform="translate(12.382)"><path class="b" d="M308.342,0V1.615h3.9l-5.531,5.531,1.142,1.142,5.531-5.531v3.9H315V0Z" transform="translate(-306.716)"/></g><g transform="translate(12.382 12.382)"><path class="b" d="M313.388,308.342v3.9l-5.531-5.531-1.142,1.142,5.531,5.531h-3.9V315H315v-6.661Z" transform="translate(-306.716 -306.716)"/></g></g></svg>