<svg xmlns="http://www.w3.org/2000/svg" width="26.93" height="38" viewBox="0 0 26.93 38"><g transform="translate(-1454.07 -65)"><path d="M76.187,23.365A4.562,4.562,0,0,1,74.8,21.478c-1.194-2.528-1.445-6.089-1.445-8.631,0-.011,0-.022,0-.033a8.33,8.33,0,0,0-4.9-7.555V3.271A3.272,3.272,0,0,0,65.186,0h-.271A3.272,3.272,0,0,0,61.65,3.271V5.258a8.331,8.331,0,0,0-4.9,7.589c0,2.542-.251,6.1-1.445,8.631a4.561,4.561,0,0,1-1.386,1.888.836.836,0,0,0-.459.951.875.875,0,0,0,.863.672h6.3a4.429,4.429,0,0,0,8.857,0h6.3a.875.875,0,0,0,.863-.672A.836.836,0,0,0,76.187,23.365ZM63.37,3.271a1.548,1.548,0,0,1,1.545-1.548h.271a1.548,1.548,0,0,1,1.545,1.548V4.7a8.331,8.331,0,0,0-3.361,0V3.271Zm1.68,24.366a2.714,2.714,0,0,1-2.708-2.649h5.416A2.714,2.714,0,0,1,65.05,27.637Zm3.464-4.372H56.277a9.014,9.014,0,0,0,.451-.791c1.153-2.273,1.737-5.512,1.737-9.627a6.584,6.584,0,1,1,13.169,0c0,.011,0,.021,0,.032,0,4.1.588,7.326,1.737,9.593a9.026,9.026,0,0,0,.451.791Z" transform="translate(1400.636 73.64)" fill="#6f6f6f"/><circle cx="10" cy="10" r="10" transform="translate(1461 65)" fill="#6f6f6f"/><text transform="translate(1466 79)" fill="#fff" font-size="10" font-family="Arial-BoldMT, Arial" font-weight="700"><tspan x="0" y="0">21</tspan></text></g></svg>