<svg xmlns="http://www.w3.org/2000/svg" width="38.741" height="22.729" viewBox="0 0 38.741 22.729"><g transform="translate(0)"><g transform="translate(10.181 8.909)"><path d="M212.086,213.929l-6.258-6.094a.815.815,0,0,0-1.383.584v3.9H184.587a.815.815,0,0,0-.815.815v2.76a.815.815,0,0,0,.815.815h19.858v3.9a.816.816,0,0,0,1.383.584l6.258-6.094A.815.815,0,0,0,212.086,213.929Z" transform="translate(-183.772 -207.603)" fill="#fff"/></g><g transform="translate(28.56 13.819) rotate(180)"><path d="M28.314,6.326,22.056.232a.815.815,0,0,0-1.383.584v3.9H.815A.815.815,0,0,0,0,5.53V8.29A.815.815,0,0,0,.815,9.1H20.673V13a.816.816,0,0,0,1.383.584l6.258-6.094A.815.815,0,0,0,28.314,6.326Z" transform="translate(0 0)" fill="#fff"/></g></g></svg>