<svg xmlns="http://www.w3.org/2000/svg" width="38.77" height="50.898" viewBox="0 0 38.77 50.898"><defs><style>.a{fill:#535353;}</style></defs><path class="a" d="M98.751,11.784,87.986,1.019A3.456,3.456,0,0,0,85.526,0H64.479A3.483,3.483,0,0,0,61,3.479V47.418A3.483,3.483,0,0,0,64.479,50.9H96.29a3.483,3.483,0,0,0,3.479-3.479V14.244A3.457,3.457,0,0,0,98.751,11.784Zm-4.072.146H88.338a.5.5,0,0,1-.5-.5V5.091ZM96.29,47.915H64.479a.5.5,0,0,1-.5-.5V3.479a.5.5,0,0,1,.5-.5H84.858v8.45a3.483,3.483,0,0,0,3.479,3.479h8.45V47.418A.5.5,0,0,1,96.29,47.915Z" transform="translate(-61 0)"/><path class="a" d="M258.591,201.982h9.5a1.491,1.491,0,0,0,0-2.982h-9.5a1.491,1.491,0,0,0,0,2.982Z" transform="translate(-237.606 -179.217)"/><path class="a" d="M258.591,301.982h9.5a1.491,1.491,0,1,0,0-2.982h-9.5a1.491,1.491,0,0,0,0,2.982Z" transform="translate(-237.606 -269.276)"/><path class="a" d="M268.135,399h-9.543a1.491,1.491,0,0,0,0,2.982h9.543a1.491,1.491,0,0,0,0-2.982Z" transform="translate(-237.606 -359.336)"/><path class="a" d="M135.7,169.2l-3.439,3.439-.811-.811a1.491,1.491,0,0,0-2.109,2.109L131.2,175.8a1.491,1.491,0,0,0,2.109,0l4.493-4.493A1.491,1.491,0,0,0,135.7,169.2Z" transform="translate(-122.151 -151.987)"/><path class="a" d="M135.7,276.837l-3.439,3.439-.811-.811a1.491,1.491,0,0,0-2.109,2.109l1.865,1.865a1.491,1.491,0,0,0,2.109,0l4.493-4.493a1.491,1.491,0,1,0-2.109-2.109Z" transform="translate(-122.151 -248.923)"/><path class="a" d="M135.7,376.837l-3.439,3.439-.811-.811a1.491,1.491,0,0,0-2.109,2.109l1.865,1.865a1.491,1.491,0,0,0,2.109,0l4.493-4.493a1.491,1.491,0,1,0-2.109-2.109Z" transform="translate(-122.151 -338.983)"/></svg>