<svg xmlns="http://www.w3.org/2000/svg" width="25.706" height="34.275" viewBox="0 0 25.706 34.275"><g transform="translate(-64)"><g transform="translate(64)"><path d="M214.5,282.486l-.45,4.051a.714.714,0,0,0,.71.793h2.856a.714.714,0,0,0,.71-.793l-.45-4.051a2.825,2.825,0,0,0,1.169-2.3,2.856,2.856,0,0,0-5.713,0A2.825,2.825,0,0,0,214.5,282.486Zm1.688-3.725a1.423,1.423,0,0,1,.616,2.708.714.714,0,0,0-.4.722l.413,3.71h-1.261l.413-3.71a.714.714,0,0,0-.4-.722,1.423,1.423,0,0,1,.616-2.708Z" transform="translate(-203.336 -258.768)"/><path d="M88.992,12.853H86.85V10a10,10,0,0,0-19.994,0v2.856H64.714a.714.714,0,0,0-.714.714V31.419a2.859,2.859,0,0,0,2.856,2.856H86.85a2.859,2.859,0,0,0,2.856-2.856V13.567A.714.714,0,0,0,88.992,12.853ZM68.284,10a8.569,8.569,0,1,1,17.137,0v2.856H83.994V10a7.141,7.141,0,1,0-14.281,0v2.856H68.284Zm14.281,0v2.856H71.141V10a5.712,5.712,0,0,1,11.425,0Zm5.712,21.422a1.43,1.43,0,0,1-1.428,1.428H66.856a1.43,1.43,0,0,1-1.428-1.428V14.281h22.85Z" transform="translate(-64)"/></g></g></svg>