<svg xmlns="http://www.w3.org/2000/svg" width="11.073" height="15.928" viewBox="0 0 11.073 15.928"><defs><style>.a{fill:#729fe5;opacity:0.54;}</style></defs><path class="a" d="M-.714,0A5.543,5.543,0,0,0-6.25,5.536c0,3.837,5.542,10.391,5.542,10.391S4.823,9.184,4.823,5.536A5.543,5.543,0,0,0-.714,0ZM.957,7.157a2.355,2.355,0,0,1-1.67.691,2.355,2.355,0,0,1-1.67-.691,2.365,2.365,0,0,1,0-3.341,2.346,2.346,0,0,1,1.67-.692,2.347,2.347,0,0,1,1.67.692A2.365,2.365,0,0,1,.957,7.157Zm0,0" transform="translate(6.25)"/></svg>