<svg xmlns="http://www.w3.org/2000/svg" width="23.526" height="21.866" viewBox="0 0 23.526 21.866"><defs><style>.a{opacity:0.43;}</style></defs><g class="a"><g transform="translate(0 0)"><path d="M21.7,23.388H19.2V18.849a.784.784,0,0,0-.784-.784H5.109a.784.784,0,0,0-.784.784v4.539H1.83A1.832,1.832,0,0,0,0,25.218v7.89a1.832,1.832,0,0,0,1.83,1.83h2.5v4.21a.784.784,0,0,0,.784.784H18.417a.784.784,0,0,0,.784-.784v-4.21h2.5a1.832,1.832,0,0,0,1.83-1.83v-7.89A1.832,1.832,0,0,0,21.7,23.388Zm-15.8-3.754H17.633v3.754H5.893ZM17.633,38.363H5.894V31.947H17.633C17.633,32.141,17.633,38.215,17.633,38.363Zm4.325-5.255a.262.262,0,0,1-.261.261H19.2V31.163a.784.784,0,0,0-.784-.784H5.109a.784.784,0,0,0-.784.784v2.206H1.83a.262.262,0,0,1-.261-.261v-7.89a.262.262,0,0,1,.261-.261H21.7a.262.262,0,0,1,.261.261Z" transform="translate(0 -18.065)"/></g><g transform="translate(15.637 8.359)"><path d="M343.078,199.988h-2a.784.784,0,0,0,0,1.568h2a.784.784,0,1,0,0-1.568Z" transform="translate(-340.298 -199.988)"/></g><g transform="translate(7.581 17.542)"><path d="M172.558,399.834h-6.8a.784.784,0,0,0,0,1.568h6.8a.784.784,0,0,0,0-1.568Z" transform="translate(-164.977 -399.834)"/></g><g transform="translate(7.581 15.069)"><path d="M172.558,346.006h-6.8a.784.784,0,0,0,0,1.568h6.8a.784.784,0,0,0,0-1.568Z" transform="translate(-164.977 -346.006)"/></g></g></svg>