<svg xmlns="http://www.w3.org/2000/svg" width="22.535" height="21.596" viewBox="0 0 22.535 21.596"><defs><style>.a{opacity:0.43;}</style></defs><path class="a" d="M5.044,22.088a1.2,1.2,0,0,1-1.167-1.465l1.45-6.386L.41,9.925a1.2,1.2,0,0,1,.679-2.1l6.505-.591L10.167,1.22a1.2,1.2,0,0,1,2.2,0l2.572,6.02,6.5.591a1.2,1.2,0,0,1,.681,2.1L17.21,14.236l1.45,6.386a1.2,1.2,0,0,1-1.782,1.294l-5.609-3.352L5.659,21.918a1.2,1.2,0,0,1-.614.17Zm6.224-4.968a1.2,1.2,0,0,1,.614.17l5.294,3.166-1.368-6.027a1.2,1.2,0,0,1,.379-1.167L20.83,9.19l-6.142-.558a1.2,1.2,0,0,1-1-.726l-2.424-5.68L8.841,7.907a1.193,1.193,0,0,1-.992.723l-6.143.558L6.348,13.26a1.2,1.2,0,0,1,.379,1.168L5.36,20.455l5.294-3.165a1.2,1.2,0,0,1,.614-.17ZM7.545,7.355a0,0,0,0,1,0,0Zm7.444,0v0S14.99,7.353,14.989,7.353Zm0,0" transform="translate(-0.001 -0.492)"/></svg>