<svg xmlns="http://www.w3.org/2000/svg" width="22.772" height="20.508" viewBox="0 0 22.772 20.508"><g transform="translate(0 -23.579)" opacity="0.2"><g transform="translate(0 23.508)"><circle cx="2.5" cy="2.5" r="2.5" transform="translate(15.58 4.071)"/><circle cx="2.5" cy="2.5" r="2.5" transform="translate(2.58 4.071)"/><circle cx="4" cy="4" r="4" transform="translate(7.58 0.071)"/><path d="M151.057,104H147.7a3.771,3.771,0,0,1,.51,1.9v6.642h3.8a.949.949,0,0,0,.949-.949V105.9A1.9,1.9,0,0,0,151.057,104Z" transform="translate(-130.182 -93.858)"/><path d="M5.255,104H1.9A1.9,1.9,0,0,0,0,105.9v5.693a.949.949,0,0,0,.949.949h3.8V105.9a3.772,3.772,0,0,1,.511-1.9Z" transform="translate(0 -93.858)"/><path d="M56.54,88h-.949l-1.9,5.693L51.8,88h-.949A2.847,2.847,0,0,0,48,90.847v8.54a.949.949,0,0,0,.949.949h9.488a.949.949,0,0,0,.949-.949v-8.54A2.847,2.847,0,0,0,56.54,88Z" transform="translate(-42.307 -79.756)"/></g></g></svg>