<svg xmlns="http://www.w3.org/2000/svg" width="31.117" height="28.929" viewBox="0 0 31.117 28.929"><defs><style>.a{fill:#c2c2c2;}</style></defs><path class="a" d="M26.255,0H4.862A4.867,4.867,0,0,0,0,4.862V21.879a4.867,4.867,0,0,0,4.862,4.862H21.454a1.216,1.216,0,1,0,0-2.431H16.977l-2.795-3.626L23.039,9.42,29,16.009a1.215,1.215,0,0,0,2.117-.815V4.862A4.867,4.867,0,0,0,26.255,0Zm2.431,12.039L23.875,6.72a1.215,1.215,0,0,0-1.857.064L12.651,18.7l-3.18-4.125a1.216,1.216,0,0,0-.963-.473h0a1.215,1.215,0,0,0-.963.474L4.87,18.052A1.216,1.216,0,0,0,6.8,19.534L8.51,17.308l5.4,7H4.862a2.434,2.434,0,0,1-2.431-2.431V4.862A2.434,2.434,0,0,1,4.862,2.431H26.255a2.434,2.434,0,0,1,2.431,2.431Zm0,0" transform="translate(0 0)"/><path class="a" d="M83.647,72a3.647,3.647,0,1,0,3.647,3.647A3.651,3.651,0,0,0,83.647,72Zm0,4.862a1.216,1.216,0,1,1,1.216-1.216A1.217,1.217,0,0,1,83.647,76.862Zm0,0" transform="translate(-75.138 -67.624)"/><path class="a" d="M360.018,288.908l-.011-.011a3.03,3.03,0,0,0-4.3-.005l-2.347,2.315a1.216,1.216,0,0,0,1.707,1.731l1.571-1.549v6.822a1.216,1.216,0,0,0,2.431,0v-6.785l1.5,1.553a1.215,1.215,0,1,0,1.747-1.691Zm0,0" transform="translate(-331.546 -270.496)"/></svg>